<svg xmlns="http://www.w3.org/2000/svg" viewBox="0 0 252.76 182.96"><defs><style>.cls-1{opacity:0.9;}.cls-2,.cls-76{fill:none;}.cls-3{font-size:4px;fill:#ededed;font-family:Alfarn;opacity:0.41;}.cls-4{letter-spacing:0.18em;}.cls-5{letter-spacing:0.05em;}.cls-6{letter-spacing:0.12em;}.cls-7{letter-spacing:0.06em;}.cls-8{letter-spacing:0.03em;}.cls-9{letter-spacing:0.07em;}.cls-10{letter-spacing:0.07em;}.cls-11{letter-spacing:0.07em;}.cls-12{letter-spacing:0.07em;}.cls-13{letter-spacing:0.06em;}.cls-14{letter-spacing:0.08em;}.cls-15{letter-spacing:0em;}.cls-16{letter-spacing:0.02em;}.cls-17{letter-spacing:0.04em;}.cls-18{letter-spacing:0.26em;}.cls-19{letter-spacing:0.08em;}.cls-20{letter-spacing:0.02em;}.cls-21{letter-spacing:0.03em;}.cls-22{letter-spacing:0.02em;}.cls-23{letter-spacing:0.05em;}.cls-24{letter-spacing:0.05em;}.cls-25{letter-spacing:0.05em;}.cls-26{letter-spacing:0.06em;}.cls-27{letter-spacing:0.08em;}.cls-28{letter-spacing:0.42em;}.cls-29{letter-spacing:0.04em;}.cls-30{letter-spacing:0.11em;}.cls-31{letter-spacing:0.05em;}.cls-32{letter-spacing:0.2em;}.cls-33{letter-spacing:0.03em;}.cls-34{letter-spacing:0.24em;}.cls-35{letter-spacing:0.01em;}.cls-36{letter-spacing:0.02em;}.cls-37{letter-spacing:0.02em;}.cls-38{letter-spacing:0.02em;}.cls-39{letter-spacing:0.06em;}.cls-40{letter-spacing:0.01em;}.cls-41{letter-spacing:0.05em;}.cls-42{letter-spacing:0.01em;}.cls-43{letter-spacing:0.02em;}.cls-44{letter-spacing:0em;}.cls-45{letter-spacing:0.46em;}.cls-46{letter-spacing:0.01em;}.cls-47{letter-spacing:0.01em;}.cls-48{letter-spacing:0.01em;}.cls-49{letter-spacing:0.03em;}.cls-50{letter-spacing:0.27em;}.cls-51{letter-spacing:0em;}.cls-52{letter-spacing:0.6em;}.cls-53{letter-spacing:0.04em;}.cls-54{letter-spacing:0.02em;}.cls-55{letter-spacing:0.01em;}.cls-56{letter-spacing:0.42em;}.cls-57{letter-spacing:0.01em;}.cls-58{letter-spacing:0.02em;}.cls-59{letter-spacing:0em;}.cls-60{letter-spacing:0.02em;}.cls-61{letter-spacing:0.13em;}.cls-62{letter-spacing:0.01em;}.cls-63{letter-spacing:0.01em;}.cls-64{letter-spacing:0em;}.cls-65{letter-spacing:0em;}.cls-66{letter-spacing:0em;}.cls-67{letter-spacing:0em;}.cls-68{letter-spacing:0em;}.cls-69{font-size:18.96px;}.cls-69,.cls-70,.cls-74{fill:#f6f6f6;font-family:EthnocentricLt-Regular, Ethnocentric;}.cls-70{font-size:31.47px;}.cls-71{letter-spacing:-0.03em;}.cls-72{letter-spacing:0em;}.cls-73{letter-spacing:-0.2em;}.cls-74{font-size:14.9px;}.cls-75{letter-spacing:-0.03em;}.cls-76{stroke:#f6f6f6;stroke-miterlimit:10;}</style></defs><title>Asset 6</title><g id="Layer_2" data-name="Layer 2"><g id="Layer_1-2" data-name="Layer 1"><g class="cls-1"><polygon class="cls-2" points="252.44 182.2 0 182.2 0 115.83 6.6 115.83 6.6 125.19 6.75 125.19 6.75 107.34 16.23 107.34 16.23 85.5 20.07 85.5 20.07 92.46 20.27 92.47 20.27 84.8 21.12 84.8 21.12 84.21 22.11 84.21 22.11 83.46 23.26 83.46 23.26 82.64 29.82 82.64 29.82 81.13 32.11 81.13 32.11 82.87 33.6 82.87 33.6 84.57 38.18 84.63 37.78 124.08 40.21 124.08 40.21 125.48 41.36 125.48 41.36 124.37 42.35 124.37 42.35 116.27 44.14 116.27 44.14 124.9 44.39 124.9 44.39 109.63 49.76 109.63 49.76 108.87 52.84 108.87 52.84 110.33 53.84 110.33 53.84 39.8 55.23 39.8 55.23 38.98 58.17 38.98 58.17 38.23 61.25 38.23 61.25 38.87 62.44 38.87 62.44 39.45 63.04 39.45 63.04 40.21 64.13 40.21 64.13 41.08 64.98 41.08 64.98 45.05 65.28 45.05 65.28 37.88 65.88 37.88 65.88 37.24 66.52 37.24 66.52 36.54 67.42 36.54 67.42 21.29 67.64 0.42 73.24 0.23 73.43 21.18 73.43 37.88 74.23 37.88 74.23 42.6 80.1 42.6 80.1 43.24 80.84 43.24 80.84 103.04 82.04 103.04 82.04 126.47 84.92 126.47 84.92 88.94 89 88.94 89 88.82 90.59 88.82 90.59 92.02 93.38 92.02 93.38 89.46 96.46 89.46 96.46 90.04 98.85 90.04 98.85 94.06 100.79 94.06 100.79 91.38 112.27 91.38 112.27 119.83 115.51 119.83 115.51 114.76 118.94 114.76 118.94 105.9 125.05 105.9 125.05 114.7 125.4 114.7 125.4 94.59 126.45 94.59 126.45 87.77 132.41 87.77 132.41 93.95 134.9 93.95 134.9 94.82 136.24 94.82 136.24 127.52 139.28 127.52 139.28 56.65 140.92 56.65 140.92 55.66 142.21 55.66 142.21 54.9 143.16 54.9 143.16 53.88 142.76 36.9 146.28 37.03 146.79 54.2 148.58 54.2 148.58 56.47 155.64 56.47 155.64 63.41 161.11 63.41 161.11 103.27 167.53 103.27 167.53 93.95 169.81 93.95 169.81 92.61 176.18 92.61 176.18 89.4 178.02 89.4 178.02 85.91 180.01 85.91 180.01 84.16 185.13 84.16 185.13 86.72 191 86.72 191 120.47 194.58 120.47 194.58 105.49 195.37 105.49 195.37 96.11 195.97 96.11 195.97 94.24 196.42 94.24 196.42 93.07 197.01 93.07 197.01 91.03 198.61 91.03 198.61 92.9 199.2 92.9 199.2 103.86 199.35 103.86 199.35 102.63 203.28 102.63 203.28 95.11 211.64 95.11 211.64 124.02 212.03 124.02 212.03 89.65 214.81 86.4 219.15 86.4 219.15 88.35 223.22 88.35 223.22 110.09 227.5 110.09 227.5 112.31 231.03 112.31 231.03 122.04 232.24 122.04 235.81 117.86 241.57 124.62 241.57 121.22 243.36 121.22 243.36 119.3 244.41 119.3 244.41 114.93 249.18 114.93 249.18 125.9 252.76 130.1 252.76 130.32 252.44 182.2"/><text class="cls-3" transform="translate(65.59 3.4) scale(0.85 1)"><tspan class="cls-4">101</tspan><tspan x="8.19" y="0">1</tspan><tspan class="cls-5" x="-0.08" y="4.5">010</tspan><tspan x="7.39" y="4.5">0</tspan><tspan class="cls-6" x="-0.16" y="9">100</tspan><tspan x="8.11" y="9">1</tspan><tspan class="cls-7" x="-0.24" y="13.5">001</tspan><tspan x="7.31" y="13.5">0</tspan><tspan class="cls-8" x="-0.32" y="18">1011</tspan><tspan x="8.03" y="18">1</tspan><tspan class="cls-9" x="-0.4" y="22.5">001</tspan><tspan x="7.23" y="22.5">0</tspan><tspan class="cls-10" x="-0.47" y="27">010</tspan><tspan x="7.19" y="27">0</tspan><tspan class="cls-11" x="-0.54" y="31.5">001</tspan><tspan x="7.16" y="31.5">0</tspan><tspan class="cls-12" x="-0.6" y="36">010</tspan><tspan x="7.12" y="36">0</tspan><tspan class="cls-13" x="-13.3" y="40.5">1000</tspan><tspan x="-3.01" y="40.5">1</tspan><tspan class="cls-14" x="-0.61" y="40.5">001</tspan><tspan x="7.12" y="40.5">0</tspan><tspan x="91.61" y="40.5">0</tspan><tspan class="cls-15" x="-13.3" y="45">010000100010</tspan><tspan x="14.91" y="45">0</tspan><tspan x="91.73" y="45">0</tspan><tspan class="cls-16" x="-13.3" y="49.5">010000100101</tspan><tspan x="14.91" y="49.5">0</tspan><tspan x="91.85" y="49.5">1</tspan><tspan class="cls-17" x="-13.3" y="54">00010000100</tspan><tspan x="14.91" y="54">0</tspan><tspan class="cls-18" x="91.88" y="54">0</tspan><tspan x="95.44" y="54">1</tspan><tspan class="cls-17" x="-13.3" y="58.5">00000100001</tspan><tspan x="14.91" y="58.5">0</tspan><tspan class="cls-19" x="87.31" y="58.5">001000</tspan><tspan x="103.75" y="58.5">1</tspan><tspan class="cls-15" x="-13.3" y="63">000010010100</tspan><tspan x="14.91" y="63">0</tspan><tspan class="cls-20" x="87.31" y="63">010001000</tspan><tspan x="109.44" y="63">0</tspan><tspan class="cls-21" x="-13.3" y="67.5">100100100010</tspan><tspan x="15.67" y="67.5">1</tspan><tspan class="cls-22" x="87.31" y="67.5">0110100100</tspan><tspan x="110.19" y="67.5">1</tspan><tspan class="cls-23" x="-13.3" y="72">001010111001</tspan><tspan x="14.91" y="72">0</tspan><tspan class="cls-24" x="87.31" y="72">010000100</tspan><tspan x="110.19" y="72">1</tspan><tspan class="cls-15" x="-13.3" y="76.5">001000100100</tspan><tspan x="14.91" y="76.5">0</tspan><tspan class="cls-24" x="87.31" y="76.5">100001000</tspan><tspan x="110.19" y="76.5">1</tspan><tspan class="cls-15" x="-13.3" y="81">000010000100</tspan><tspan x="15.67" y="81">1</tspan><tspan class="cls-24" x="87.31" y="81">010100010</tspan><tspan x="109.44" y="81">0</tspan><tspan x="-57.6" y="85.5">0</tspan><tspan class="cls-25" x="-52.84" y="85.5">0100001</tspan><tspan x="-35.38" y="85.5">0</tspan><tspan class="cls-17" x="-13.3" y="85.5">00001000010</tspan><tspan x="14.91" y="85.5">0</tspan><tspan class="cls-20" x="87.31" y="85.5">010001000</tspan><tspan x="109.44" y="85.5">0</tspan><tspan class="cls-26" x="132.93" y="85.5">10</tspan><tspan x="137.73" y="85.5">0</tspan><tspan x="-57.6" y="90">1</tspan><tspan class="cls-17" x="-52.84" y="90">0100001</tspan><tspan x="-35.43" y="90">0</tspan><tspan class="cls-15" x="-13.3" y="90">001000010010</tspan><tspan x="14.91" y="90">0</tspan><tspan x="25.58" y="90">1</tspan><tspan class="cls-27" x="33.25" y="90">0</tspan><tspan x="36.11" y="90">0</tspan><tspan class="cls-28" x="72.2" y="90">0</tspan><tspan x="76.4" y="90">1</tspan><tspan class="cls-22" x="87.31" y="90">0101101001</tspan><tspan x="109.44" y="90">0</tspan><tspan class="cls-29" x="130.76" y="90">010010</tspan><tspan x="145.39" y="90">1</tspan><tspan class="cls-30" x="172.99" y="90">0111</tspan><tspan x="182.59" y="90">0</tspan><tspan class="cls-31" x="-57.6" y="94.5">010010000</tspan><tspan x="-34.73" y="94.5">1</tspan><tspan class="cls-16" x="-13.3" y="94.5">001001000100</tspan><tspan x="15.67" y="94.5">1</tspan><tspan x="25.58" y="94.5">000100001000</tspan><tspan class="cls-32" x="70.97" y="94.5">100</tspan><tspan x="80.16" y="94.5">0</tspan><tspan class="cls-24" x="87.31" y="94.5">010000100</tspan><tspan x="110.19" y="94.5">1</tspan><tspan class="cls-33" x="120.58" y="94.5">0101000100</tspan><tspan x="144.64" y="94.5">0</tspan><tspan x="154.07" y="94.5">0</tspan><tspan class="cls-34" x="162.68" y="94.5">10</tspan><tspan x="168.94" y="94.5">0</tspan><tspan class="cls-35" x="172.99" y="94.5">0010</tspan><tspan x="182.59" y="94.5">0</tspan><tspan class="cls-36" x="-57.6" y="99">000100001</tspan><tspan x="-35.54" y="99">0</tspan><tspan class="cls-15" x="-13.3" y="99">001000100001</tspan><tspan x="14.91" y="99">0</tspan><tspan class="cls-37" x="25.58" y="99">01010000100</tspan><tspan x="51.93" y="99">0</tspan><tspan class="cls-32" x="70.97" y="99">100</tspan><tspan x="80.16" y="99">0</tspan><tspan class="cls-24" x="87.31" y="99">010010010</tspan><tspan x="109.44" y="99">0</tspan><tspan class="cls-38" x="120.58" y="99">01010110100</tspan><tspan x="145.39" y="99">1</tspan><tspan x="153.37" y="99">0</tspan><tspan class="cls-34" x="162.68" y="99">01</tspan><tspan x="168.94" y="99">0</tspan><tspan class="cls-39" x="172.99" y="99">0101</tspan><tspan x="182.59" y="99">0</tspan><tspan class="cls-40" x="-57.6" y="103.5">1110010010</tspan><tspan x="-35.59" y="103.5">0</tspan><tspan class="cls-41" x="-13.3" y="103.5">001001001000</tspan><tspan x="17.07" y="103.5">1</tspan><tspan class="cls-42" x="23.3" y="103.5">001000100001</tspan><tspan x="51.93" y="103.5">0</tspan><tspan class="cls-32" x="70.97" y="103.5">001</tspan><tspan x="80.16" y="103.5">0</tspan><tspan class="cls-43" x="87.31" y="103.5">000100001001010100010000</tspan><tspan class="cls-44" x="145.39" y="103.5">1</tspan><tspan class="cls-41" x="153.37" y="103.5">000010</tspan><tspan x="168.94" y="103.5">0</tspan><tspan class="cls-35" x="172.99" y="103.5">0001</tspan><tspan x="182.59" y="103.5">0</tspan><tspan class="cls-41" x="-68.76" y="108">0001000100010</tspan><tspan x="-35.65" y="108">0</tspan><tspan class="cls-41" x="-13.3" y="108">001001010000</tspan><tspan x="17.07" y="108">1</tspan><tspan class="cls-42" x="23.3" y="108">000100001001</tspan><tspan x="51.93" y="108">0</tspan><tspan class="cls-45" x="63.36" y="108">0</tspan><tspan x="67.73" y="108">1</tspan><tspan class="cls-32" x="70.97" y="108">000</tspan><tspan x="80.91" y="108">1</tspan><tspan class="cls-46" x="87.31" y="108">01011010010010010101110010</tspan><tspan x="144.64" y="108">0</tspan><tspan class="cls-47" x="152.43" y="108">1000010</tspan><tspan x="168.94" y="108">0</tspan><tspan class="cls-39" x="172.99" y="108">1001</tspan><tspan x="182.59" y="108">0</tspan><tspan class="cls-48" x="-68.76" y="112.5">00100100010000</tspan><tspan x="-34.94" y="112.5">1</tspan><tspan class="cls-42" x="-24.43" y="112.5">00010000100001001</tspan><tspan x="16.32" y="112.5">0</tspan><tspan class="cls-49" x="23.3" y="112.5">101000100001</tspan><tspan x="51.93" y="112.5">0</tspan><tspan class="cls-50" x="63.36" y="112.5">0</tspan><tspan x="66.98" y="112.5">0</tspan><tspan class="cls-32" x="70.97" y="112.5">010</tspan><tspan x="80.16" y="112.5">0</tspan><tspan class="cls-48" x="87.31" y="112.5">000100001000100010000100</tspan><tspan x="145.39" y="112.5">1</tspan><tspan class="cls-47" x="152.43" y="112.5">0100001</tspan><tspan x="168.94" y="112.5">0</tspan><tspan class="cls-51" x="172.99" y="112.5">00100001</tspan><tspan x="191.78" y="112.5">0</tspan><tspan class="cls-52" x="-76.71" y="117">0</tspan><tspan x="-71.77" y="117">1</tspan><tspan class="cls-53" x="-68.76" y="117">00100010101101</tspan><tspan x="-35.75" y="117">0</tspan><tspan class="cls-54" x="-24.43" y="117">010010010101110010</tspan><tspan x="16.32" y="117">0</tspan><tspan class="cls-49" x="23.3" y="117">100001001001</tspan><tspan x="51.93" y="117">0</tspan><tspan class="cls-55" x="59.32" y="117">001001000</tspan><tspan x="80.91" y="117">1</tspan><tspan class="cls-48" x="87.31" y="117">000010001000010000100101</tspan><tspan x="144.63" y="117">0</tspan><tspan class="cls-47" x="152.43" y="117">1000100</tspan><tspan x="168.94" y="117">0</tspan><tspan class="cls-51" x="172.99" y="117">01000010</tspan><tspan x="191.78" y="117">0</tspan><tspan x="211.12" y="117">0</tspan><tspan class="cls-56" x="-76.71" y="121.5">0</tspan><tspan x="-72.52" y="121.5">0</tspan><tspan class="cls-57" x="-68.76" y="121.5">10000100010001</tspan><tspan x="-35.78" y="121.5">0</tspan><tspan class="cls-58" x="-24.43" y="121.5">00010010100001000</tspan><tspan x="17.07" y="121.5">1</tspan><tspan class="cls-59" x="23.3" y="121.5">0000100100100010101101001</tspan><tspan x="80.16" y="121.5">0</tspan><tspan class="cls-15" x="87.31" y="121.5">010010101110010010000100100100010010</tspan><tspan x="168.94" y="121.5">0</tspan><tspan class="cls-60" x="172.99" y="121.5">010000100010</tspan><tspan x="202.06" y="121.5">0</tspan><tspan class="cls-61" x="207.78" y="121.5">00</tspan><tspan x="213.91" y="121.5">1</tspan><tspan class="cls-62" x="-76.71" y="126">000010010101000100001000010000010000100010001000010010100001000100</tspan><tspan x="80.15" y="126">0</tspan><tspan class="cls-63" x="87.31" y="126">01001001000101011010010010010101110010010000100100100010</tspan><tspan x="214.25" y="126">0</tspan><tspan class="cls-64" x="-76.71" y="130.5">1000100001000100001000010010101000100001000010000010000100010001000010010100001000100001001001000101011010010010010101110010010</tspan><tspan x="217.35" y="130.5">0</tspan><tspan class="cls-65" x="-76.71" y="135">001001001000100100010000100010000100001001010100010000100001000001000010001000100001001010000100010000100100100010101101001001</tspan><tspan x="217.32" y="135">0</tspan><tspan class="cls-66" x="-76.71" y="139.5">010101110010010000100100100010010001000010001000010000100101010001000010000100000100001000100010000100101000010001000010010010</tspan><tspan x="217.28" y="139.5">0</tspan><tspan class="cls-15" x="-76.71" y="144">0101011010010010010101110010010000100100100010010001000010001000010000100101010001000010000100000100001000100010000100101000010</tspan><tspan x="217.25" y="144">0</tspan><tspan class="cls-15" x="-76.71" y="148.5">0100001001001000101011010010010010101110010010000100100100010010001000010001000010000100101010001000010000100000100001000100010</tspan><tspan x="217.22" y="148.5">0</tspan><tspan class="cls-59" x="-76.71" y="153">0010010100001000100001001001000101011010010010010101110010010000100100100010010001000010001000010000100101010001000010000100000</tspan><tspan x="217.94" y="153">1</tspan><tspan class="cls-59" x="-76.71" y="157.5">0000100010001000010010100001000100001001001000101011010010010010101110010010000100100100010010001000010001000010000100101010001</tspan><tspan x="217.15" y="157.5">0</tspan><tspan x="-76.71" y="162">00010000100000100001000100010000100101000010001000010010010001010110100100100101011100100100001001001000100100010000100010000100</tspan><tspan class="cls-67" x="-76.71" y="166.5">0010010101000100001000010000010000100010001000010010100001000100001001001000101011010010010010101110010010000100100100010010001</tspan><tspan x="217.09" y="166.5">0</tspan><tspan class="cls-68" x="-76.71" y="171">0001000100001000010010101000100001000010000010000100010001000010010100001000100001001001000101011010010010010101110010010000100</tspan><tspan x="217.81" y="171">1</tspan><tspan x="-76.71" y="175.5">00100010010001000010001000010000100101010001000010000100000100001000100010000100101000010001000010010010001010110100100100101011</tspan></text></g><text class="cls-69" transform="translate(1.23 141.83) scale(0.95 1)">Applied</text><text class="cls-70" transform="translate(0.22 166.73) scale(0.75 1)">BIOIN<tspan class="cls-71" x="100.36" y="0">F</tspan><tspan class="cls-72" x="123.33" y="0">ORM</tspan><tspan class="cls-73" x="221.39" y="0">A</tspan><tspan class="cls-72" x="247.2" y="0">TICS</tspan></text><text class="cls-74" transform="translate(137.62 179.16) scale(0.97 1)"><tspan class="cls-75">f</tspan><tspan x="10.81" y="0">rankfurt</tspan></text><path class="cls-76" d="M2.16,168.44c2.07,4.7,4.9,9.72,7.7,9.31,3.58-.53,4.6-9.56,7.71-9.53s4.41,9.91,7.71,10,4.64-9.62,7.88-9.53,4.18,9.44,7.35,9.53,4.6-9.59,7.88-9.53,4.36,9.52,7.53,9.53,4.48-9.77,7.7-9.75,4.28,9.46,7.53,9.53,4.6-9.37,7.88-9.31S83.4,178,86.56,178s4.39-9.49,7.59-9.5,4.45,9.61,7.68,9.61,4.45-9.61,7.68-9.61,4.45,9.61,7.68,9.61,4.07-8.92,7.59-9.45c2.59-.39,5.31,3.93,7.73,9.45"/><path class="cls-76" d="M7.27,169c2.07,4.69,4.9,9.72,7.7,9.31,3.58-.53,4.6-9.56,7.71-9.54s4.41,9.92,7.7,10,4.65-9.63,7.89-9.53,4.18,9.44,7.35,9.53,4.6-9.59,7.88-9.53,4.36,9.51,7.53,9.53,4.48-9.77,7.7-9.75,4.27,9.46,7.53,9.53,4.6-9.37,7.88-9.31,4.37,9.31,7.53,9.31,4.39-9.49,7.59-9.5,4.45,9.6,7.68,9.6,4.45-9.6,7.68-9.6,4.45,9.61,7.68,9.6,4.07-8.92,7.59-9.44c2.59-.39,5.3,3.92,7.73,9.44"/></g></g></svg>